<svg id="visual" viewBox="0 0 900 600" width="900" height="600" xmlns="http://www.w3.org/2000/svg" xmlns:xlink="http://www.w3.org/1999/xlink" version="1.1"><rect x="0" y="0" width="900" height="600" fill="#001220"></rect><path d="M0 379L21.5 375.2C43 371.3 86 363.7 128.8 375C171.7 386.3 214.3 416.7 257.2 422C300 427.3 343 407.7 385.8 395.3C428.7 383 471.3 378 514.2 374.2C557 370.3 600 367.7 642.8 375C685.7 382.3 728.3 399.7 771.2 409.2C814 418.7 857 420.3 878.5 421.2L900 422L900 601L878.5 601C857 601 814 601 771.2 601C728.3 601 685.7 601 642.8 601C600 601 557 601 514.2 601C471.3 601 428.7 601 385.8 601C343 601 300 601 257.2 601C214.3 601 171.7 601 128.8 601C86 601 43 601 21.5 601L0 601Z" fill="#fa7268"></path><path d="M0 432L21.5 430.8C43 429.7 86 427.3 128.8 424.5C171.7 421.7 214.3 418.3 257.2 422.5C300 426.7 343 438.3 385.8 437.3C428.7 436.3 471.3 422.7 514.2 426C557 429.3 600 449.7 642.8 447.7C685.7 445.7 728.3 421.3 771.2 420.2C814 419 857 441 878.5 452L900 463L900 601L878.5 601C857 601 814 601 771.2 601C728.3 601 685.7 601 642.8 601C600 601 557 601 514.2 601C471.3 601 428.7 601 385.8 601C343 601 300 601 257.2 601C214.3 601 171.7 601 128.8 601C86 601 43 601 21.5 601L0 601Z" fill="#ef5f67"></path><path d="M0 465L21.5 461.5C43 458 86 451 128.8 449.7C171.7 448.3 214.3 452.7 257.2 462.5C300 472.3 343 487.7 385.8 488.2C428.7 488.7 471.3 474.3 514.2 472.3C557 470.3 600 480.7 642.8 486.3C685.7 492 728.3 493 771.2 485.5C814 478 857 462 878.5 454L900 446L900 601L878.5 601C857 601 814 601 771.2 601C728.3 601 685.7 601 642.8 601C600 601 557 601 514.2 601C471.3 601 428.7 601 385.8 601C343 601 300 601 257.2 601C214.3 601 171.7 601 128.8 601C86 601 43 601 21.5 601L0 601Z" fill="#e34c67"></path><path d="M0 490L21.5 489C43 488 86 486 128.8 485.8C171.7 485.7 214.3 487.3 257.2 487.8C300 488.3 343 487.7 385.8 490.3C428.7 493 471.3 499 514.2 501.2C557 503.3 600 501.7 642.8 506C685.7 510.3 728.3 520.7 771.2 526.3C814 532 857 533 878.5 533.5L900 534L900 601L878.5 601C857 601 814 601 771.2 601C728.3 601 685.7 601 642.8 601C600 601 557 601 514.2 601C471.3 601 428.7 601 385.8 601C343 601 300 601 257.2 601C214.3 601 171.7 601 128.8 601C86 601 43 601 21.5 601L0 601Z" fill="#d53867"></path><path d="M0 538L21.5 539.2C43 540.3 86 542.7 128.8 545.2C171.7 547.7 214.3 550.3 257.2 553.3C300 556.3 343 559.7 385.8 559C428.7 558.3 471.3 553.7 514.2 551.7C557 549.7 600 550.3 642.8 546.8C685.7 543.3 728.3 535.7 771.2 536.2C814 536.7 857 545.3 878.5 549.7L900 554L900 601L878.5 601C857 601 814 601 771.2 601C728.3 601 685.7 601 642.8 601C600 601 557 601 514.2 601C471.3 601 428.7 601 385.8 601C343 601 300 601 257.2 601C214.3 601 171.7 601 128.8 601C86 601 43 601 21.5 601L0 601Z" fill="#c62368"></path></svg>